<?xml version="1.0" encoding="utf-8"?><svg xmlns="http://www.w3.org/2000/svg" xmlns:xlink="http://www.w3.org/1999/xlink" width="200px" height="200px" viewBox="0 0 100 100" preserveAspectRatio="xMidYMid" style="margin-right:-2px;display:block;background-repeat-y:initial;background-repeat-x:initial;animation-play-state:paused" ><g transform="rotate(0 50 50)" style="transform:matrix(1, 0, 0, 1, 0, 0);animation-play-state:paused" ><rect x="49.5" y="30.5" rx="0" ry="0" width="1" height="3" fill="#f91616" opacity="0.041667" style="opacity:0.041667;animation-play-state:paused" ></rect></g>
<g transform="rotate(15 50 50)" style="transform:matrix(0.965926, 0.258819, -0.258819, 0.965926, 14.6447, -11.2372);animation-play-state:paused" ><rect x="49.5" y="30.5" rx="0" ry="0" width="1" height="3" fill="#f91616" opacity="0.083334" style="opacity:0.083334;animation-play-state:paused" ></rect></g>
<g transform="rotate(30 50 50)" style="transform:matrix(0.866025, 0.5, -0.5, 0.866025, 31.6987, -18.3013);animation-play-state:paused" ><rect x="49.5" y="30.5" rx="0" ry="0" width="1" height="3" fill="#f91616" opacity="0.125" style="opacity:0.125;animation-play-state:paused" ></rect></g>
<g transform="rotate(45 50 50)" style="transform:matrix(0.707107, 0.707107, -0.707107, 0.707107, 50, -20.7107);animation-play-state:paused" ><rect x="49.5" y="30.5" rx="0" ry="0" width="1" height="3" fill="#f91616" opacity="0.166667" style="opacity:0.166667;animation-play-state:paused" ></rect></g>
<g transform="rotate(60 50 50)" style="transform:matrix(0.5, 0.866025, -0.866025, 0.5, 68.3013, -18.3013);animation-play-state:paused" ><rect x="49.5" y="30.5" rx="0" ry="0" width="1" height="3" fill="#f91616" opacity="0.208334" style="opacity:0.208334;animation-play-state:paused" ></rect></g>
<g transform="rotate(75 50 50)" style="transform:matrix(0.258819, 0.965926, -0.965926, 0.258819, 85.3553, -11.2372);animation-play-state:paused" ><rect x="49.5" y="30.5" rx="0" ry="0" width="1" height="3" fill="#f91616" opacity="0.25" style="opacity:0.25;animation-play-state:paused" ></rect></g>
<g transform="rotate(90 50 50)" style="transform:matrix(6.12323e-17, 1, -1, 6.12323e-17, 100, 0);animation-play-state:paused" ><rect x="49.5" y="30.5" rx="0" ry="0" width="1" height="3" fill="#f91616" opacity="0.291667" style="opacity:0.291667;animation-play-state:paused" ></rect></g>
<g transform="rotate(105 50 50)" style="transform:matrix(-0.258819, 0.965926, -0.965926, -0.258819, 111.237, 14.6447);animation-play-state:paused" ><rect x="49.5" y="30.5" rx="0" ry="0" width="1" height="3" fill="#f91616" opacity="0.333334" style="opacity:0.333334;animation-play-state:paused" ></rect></g>
<g transform="rotate(120 50 50)" style="transform:matrix(-0.5, 0.866025, -0.866025, -0.5, 118.301, 31.6987);animation-play-state:paused" ><rect x="49.5" y="30.5" rx="0" ry="0" width="1" height="3" fill="#f91616" opacity="0.375" style="opacity:0.375;animation-play-state:paused" ></rect></g>
<g transform="rotate(135 50 50)" style="transform:matrix(-0.707107, 0.707107, -0.707107, -0.707107, 120.711, 50);animation-play-state:paused" ><rect x="49.5" y="30.5" rx="0" ry="0" width="1" height="3" fill="#f91616" opacity="0.416667" style="opacity:0.416667;animation-play-state:paused" ></rect></g>
<g transform="rotate(150 50 50)" style="transform:matrix(-0.866025, 0.5, -0.5, -0.866025, 118.301, 68.3013);animation-play-state:paused" ><rect x="49.5" y="30.5" rx="0" ry="0" width="1" height="3" fill="#f91616" opacity="0.458334" style="opacity:0.458334;animation-play-state:paused" ></rect></g>
<g transform="rotate(165 50 50)" style="transform:matrix(-0.965926, 0.258819, -0.258819, -0.965926, 111.237, 85.3553);animation-play-state:paused" ><rect x="49.5" y="30.5" rx="0" ry="0" width="1" height="3" fill="#f91616" opacity="0.5" style="opacity:0.5;animation-play-state:paused" ></rect></g>
<g transform="rotate(180 50 50)" style="transform:matrix(-1, 1.22465e-16, -1.22465e-16, -1, 100, 100);animation-play-state:paused" ><rect x="49.5" y="30.5" rx="0" ry="0" width="1" height="3" fill="#f91616" opacity="0.541667" style="opacity:0.541667;animation-play-state:paused" ></rect></g>
<g transform="rotate(195 50 50)" style="transform:matrix(-0.965926, -0.258819, 0.258819, -0.965926, 85.3553, 111.237);animation-play-state:paused" ><rect x="49.5" y="30.5" rx="0" ry="0" width="1" height="3" fill="#f91616" opacity="0.583334" style="opacity:0.583334;animation-play-state:paused" ></rect></g>
<g transform="rotate(210 50 50)" style="transform:matrix(-0.866025, -0.5, 0.5, -0.866025, 68.3013, 118.301);animation-play-state:paused" ><rect x="49.5" y="30.5" rx="0" ry="0" width="1" height="3" fill="#f91616" opacity="0.625" style="opacity:0.625;animation-play-state:paused" ></rect></g>
<g transform="rotate(225 50 50)" style="transform:matrix(-0.707107, -0.707107, 0.707107, -0.707107, 50, 120.711);animation-play-state:paused" ><rect x="49.5" y="30.5" rx="0" ry="0" width="1" height="3" fill="#f91616" opacity="0.666667" style="opacity:0.666667;animation-play-state:paused" ></rect></g>
<g transform="rotate(240 50 50)" style="transform:matrix(-0.5, -0.866025, 0.866025, -0.5, 31.6987, 118.301);animation-play-state:paused" ><rect x="49.5" y="30.5" rx="0" ry="0" width="1" height="3" fill="#f91616" opacity="0.708334" style="opacity:0.708334;animation-play-state:paused" ></rect></g>
<g transform="rotate(255 50 50)" style="transform:matrix(-0.258819, -0.965926, 0.965926, -0.258819, 14.6447, 111.237);animation-play-state:paused" ><rect x="49.5" y="30.5" rx="0" ry="0" width="1" height="3" fill="#f91616" opacity="0.75" style="opacity:0.75;animation-play-state:paused" ></rect></g>
<g transform="rotate(270 50 50)" style="transform:matrix(-1.83697e-16, -1, 1, -1.83697e-16, 7.10543e-15, 100);animation-play-state:paused" ><rect x="49.5" y="30.5" rx="0" ry="0" width="1" height="3" fill="#f91616" opacity="0.791667" style="opacity:0.791667;animation-play-state:paused" ></rect></g>
<g transform="rotate(285 50 50)" style="transform:matrix(0.258819, -0.965926, 0.965926, 0.258819, -11.2372, 85.3553);animation-play-state:paused" ><rect x="49.5" y="30.5" rx="0" ry="0" width="1" height="3" fill="#f91616" opacity="0.833334" style="opacity:0.833334;animation-play-state:paused" ></rect></g>
<g transform="rotate(300 50 50)" style="transform:matrix(0.5, -0.866025, 0.866025, 0.5, -18.3013, 68.3013);animation-play-state:paused" ><rect x="49.5" y="30.5" rx="0" ry="0" width="1" height="3" fill="#f91616" opacity="0.875" style="opacity:0.875;animation-play-state:paused" ></rect></g>
<g transform="rotate(315 50 50)" style="transform:matrix(0.707107, -0.707107, 0.707107, 0.707107, -20.7107, 50);animation-play-state:paused" ><rect x="49.5" y="30.5" rx="0" ry="0" width="1" height="3" fill="#f91616" opacity="0.916667" style="opacity:0.916667;animation-play-state:paused" ></rect></g>
<g transform="rotate(330 50 50)" style="transform:matrix(0.866025, -0.5, 0.5, 0.866025, -18.3013, 31.6987);animation-play-state:paused" ><rect x="49.5" y="30.5" rx="0" ry="0" width="1" height="3" fill="#f91616" opacity="0.958334" style="opacity:0.958334;animation-play-state:paused" ></rect></g>
<g transform="rotate(345 50 50)" style="transform:matrix(0.965926, -0.258819, 0.258819, 0.965926, -11.2372, 14.6447);animation-play-state:paused" ><rect x="49.5" y="30.5" rx="0" ry="0" width="1" height="3" fill="#f91616" opacity="1" style="animation-play-state:paused" ></rect></g><!-- generated by https://loading.io/ --></svg>